<svg width="100" height="100" viewBox="0 0 100 100" xmlns="http://www.w3.org/2000/svg">
  <!-- Sound wave and speaker representation -->
  <defs>
    <linearGradient id="soundGrad" x1="0%" y1="0%" x2="100%" y2="0%">
      <stop offset="0%" style="stop-color:#2e7d32;stop-opacity:1" />
      <stop offset="100%" style="stop-color:#66bb6a;stop-opacity:1" />
    </linearGradient>
  </defs>

  <!-- Speaker -->
  <path d="M 20 35 L 30 35 L 45 25 L 45 75 L 30 65 L 20 65 Z" fill="url(#soundGrad)"/>

  <!-- Sound waves -->
  <path d="M 52 40 Q 62 40 62 50 Q 62 60 52 60" stroke="#2e7d32" stroke-width="2.5" fill="none" stroke-linecap="round"/>
  <path d="M 58 35 Q 72 35 72 50 Q 72 65 58 65" stroke="#66bb6a" stroke-width="2.5" fill="none" stroke-linecap="round"/>
  <path d="M 64 30 Q 82 30 82 50 Q 82 70 64 70" stroke="#66bb6a" stroke-width="2" fill="none" stroke-linecap="round" opacity="0.7"/>

  <!-- Waveform at bottom -->
  <path d="M 15 85 Q 20 80 25 85 T 35 85 T 45 85 T 55 85 T 65 85 T 75 85 T 85 85" stroke="#2e7d32" stroke-width="1.5" fill="none"/>
</svg>
