<svg width="100" height="100" viewBox="0 0 100 100" xmlns="http://www.w3.org/2000/svg">
  <!-- Chemistry flask with molecules -->
  <defs>
    <linearGradient id="chemGrad" x1="0%" y1="0%" x2="0%" y2="100%">
      <stop offset="0%" style="stop-color:#66bb6a;stop-opacity:0.3" />
      <stop offset="100%" style="stop-color:#2e7d32;stop-opacity:0.5" />
    </linearGradient>
  </defs>

  <!-- Flask -->
  <path d="M 35 15 L 35 35 L 25 60 Q 25 75 35 78 L 65 78 Q 75 75 75 60 L 65 35 L 65 15 Z"
        fill="url(#chemGrad)" stroke="#2e7d32" stroke-width="2.5"/>

  <!-- Flask neck -->
  <rect x="42" y="10" width="16" height="8" fill="none" stroke="#2e7d32" stroke-width="2.5"/>

  <!-- Liquid level -->
  <path d="M 28 55 Q 28 65 35 68 L 65 68 Q 72 65 72 55 L 67 40 L 33 40 Z"
        fill="#66bb6a" opacity="0.6"/>

  <!-- Molecules (mentol structure simplified) -->
  <circle cx="45" cy="50" r="3" fill="#2e7d32"/>
  <circle cx="55" cy="48" r="3" fill="#2e7d32"/>
  <circle cx="50" cy="58" r="3" fill="#66bb6a"/>
  <circle cx="40" cy="60" r="2.5" fill="#2e7d32" opacity="0.7"/>
  <circle cx="60" cy="56" r="2.5" fill="#2e7d32" opacity="0.7"/>

  <!-- Bonds -->
  <line x1="45" y1="50" x2="55" y2="48" stroke="#2e7d32" stroke-width="1.5" opacity="0.5"/>
  <line x1="50" y1="58" x2="45" y2="50" stroke="#2e7d32" stroke-width="1.5" opacity="0.5"/>
  <line x1="50" y1="58" x2="55" y2="48" stroke="#2e7d32" stroke-width="1.5" opacity="0.5"/>

  <!-- Bubbles rising -->
  <circle cx="48" cy="45" r="1.5" fill="#ffffff" opacity="0.7"/>
  <circle cx="52" cy="38" r="1" fill="#ffffff" opacity="0.6"/>
  <circle cx="46" cy="32" r="1.2" fill="#ffffff" opacity="0.5"/>
</svg>
