<svg width="100" height="100" viewBox="0 0 100 100" xmlns="http://www.w3.org/2000/svg">
  <!-- Community/people group -->
  <defs>
    <linearGradient id="communityGrad" x1="0%" y1="0%" x2="0%" y2="100%">
      <stop offset="0%" style="stop-color:#2e7d32;stop-opacity:1" />
      <stop offset="100%" style="stop-color:#66bb6a;stop-opacity:1" />
    </linearGradient>
  </defs>

  <!-- Person 1 (left) -->
  <circle cx="30" cy="35" r="8" fill="#66bb6a"/>
  <path d="M 15 70 Q 15 50 30 50 Q 45 50 45 70 Z" fill="#66bb6a" opacity="0.8"/>

  <!-- Person 2 (center) -->
  <circle cx="50" cy="30" r="10" fill="url(#communityGrad)"/>
  <path d="M 32 75 Q 32 52 50 52 Q 68 52 68 75 Z" fill="url(#communityGrad)"/>

  <!-- Person 3 (right) -->
  <circle cx="70" cy="35" r="8" fill="#66bb6a"/>
  <path d="M 55 70 Q 55 50 70 50 Q 85 50 85 70 Z" fill="#66bb6a" opacity="0.8"/>

  <!-- House/community symbol -->
  <path d="M 35 82 L 50 70 L 65 82 L 65 95 L 35 95 Z" fill="none" stroke="#2e7d32" stroke-width="2"/>
  <path d="M 50 70 L 50 65 L 35 65" fill="none" stroke="#2e7d32" stroke-width="2"/>
</svg>
