<svg width="100" height="100" viewBox="0 0 100 100" xmlns="http://www.w3.org/2000/svg">
  <!-- Drone quadcopter design -->
  <defs>
    <linearGradient id="droneGrad" x1="0%" y1="0%" x2="100%" y2="100%">
      <stop offset="0%" style="stop-color:#2e7d32;stop-opacity:1" />
      <stop offset="100%" style="stop-color:#66bb6a;stop-opacity:1" />
    </linearGradient>
  </defs>

  <!-- Propellers -->
  <ellipse cx="25" cy="25" rx="12" ry="4" fill="#66bb6a" opacity="0.6" transform="rotate(-30 25 25)"/>
  <ellipse cx="75" cy="25" rx="12" ry="4" fill="#66bb6a" opacity="0.6" transform="rotate(30 75 25)"/>
  <ellipse cx="25" cy="75" rx="12" ry="4" fill="#66bb6a" opacity="0.6" transform="rotate(30 25 75)"/>
  <ellipse cx="75" cy="75" rx="12" ry="4" fill="#66bb6a" opacity="0.6" transform="rotate(-30 75 75)"/>

  <!-- Arms -->
  <line x1="50" y1="50" x2="25" y2="25" stroke="#2e7d32" stroke-width="3"/>
  <line x1="50" y1="50" x2="75" y2="25" stroke="#2e7d32" stroke-width="3"/>
  <line x1="50" y1="50" x2="25" y2="75" stroke="#2e7d32" stroke-width="3"/>
  <line x1="50" y1="50" x2="75" y2="75" stroke="#2e7d32" stroke-width="3"/>

  <!-- Motors -->
  <circle cx="25" cy="25" r="4" fill="#2e7d32"/>
  <circle cx="75" cy="25" r="4" fill="#2e7d32"/>
  <circle cx="25" cy="75" r="4" fill="#2e7d32"/>
  <circle cx="75" cy="75" r="4" fill="#2e7d32"/>

  <!-- Body -->
  <rect x="40" y="40" width="20" height="20" fill="url(#droneGrad)" rx="3"/>

  <!-- Camera -->
  <rect x="45" y="58" width="10" height="6" fill="#2e7d32" rx="2"/>
  <circle cx="50" cy="61" r="2" fill="#66bb6a"/>
</svg>
