<svg width="100" height="100" viewBox="0 0 100 100" xmlns="http://www.w3.org/2000/svg">
  <!-- Ecosystem with tree and mountains -->
  <defs>
    <linearGradient id="ecoGrad" x1="0%" y1="0%" x2="0%" y2="100%">
      <stop offset="0%" style="stop-color:#2e7d32;stop-opacity:1" />
      <stop offset="100%" style="stop-color:#66bb6a;stop-opacity:1" />
    </linearGradient>
  </defs>

  <!-- Mountains -->
  <path d="M 10 70 L 30 40 L 50 60 L 40 70 Z" fill="#66bb6a" opacity="0.4"/>
  <path d="M 35 70 L 55 35 L 75 55 L 65 70 Z" fill="#66bb6a" opacity="0.5"/>
  <path d="M 60 70 L 80 45 L 95 70 Z" fill="#66bb6a" opacity="0.3"/>

  <!-- Ground -->
  <rect x="0" y="70" width="100" height="30" fill="#66bb6a" opacity="0.2"/>

  <!-- Tree -->
  <rect x="18" y="50" width="6" height="20" fill="#2e7d32"/>

  <!-- Tree foliage -->
  <circle cx="21" cy="48" r="10" fill="url(#ecoGrad)" opacity="0.9"/>
  <circle cx="16" cy="42" r="8" fill="#2e7d32" opacity="0.8"/>
  <circle cx="26" cy="42" r="8" fill="#2e7d32" opacity="0.8"/>

  <!-- Sun -->
  <circle cx="80" cy="25" r="8" fill="#66bb6a" opacity="0.6"/>
  <line x1="80" y1="14" x2="80" y2="10" stroke="#66bb6a" stroke-width="2" opacity="0.5"/>
  <line x1="91" y1="25" x2="95" y2="25" stroke="#66bb6a" stroke-width="2" opacity="0.5"/>
  <line x1="88" y1="17" x2="91" y2="14" stroke="#66bb6a" stroke-width="2" opacity="0.5"/>
  <line x1="88" y1="33" x2="91" y2="36" stroke="#66bb6a" stroke-width="2" opacity="0.5"/>

  <!-- Grass -->
  <path d="M 10 75 L 12 70 L 14 75" fill="none" stroke="#2e7d32" stroke-width="1.5"/>
  <path d="M 30 78 L 32 73 L 34 78" fill="none" stroke="#2e7d32" stroke-width="1.5"/>
  <path d="M 50 76 L 52 71 L 54 76" fill="none" stroke="#2e7d32" stroke-width="1.5"/>
</svg>
