<svg width="100" height="100" viewBox="0 0 100 100" xmlns="http://www.w3.org/2000/svg">
  <!-- Education with book and graduation cap -->
  <defs>
    <linearGradient id="eduGrad" x1="0%" y1="0%" x2="100%" y2="100%">
      <stop offset="0%" style="stop-color:#2e7d32;stop-opacity:1" />
      <stop offset="100%" style="stop-color:#66bb6a;stop-opacity:1" />
    </linearGradient>
  </defs>

  <!-- Open book -->
  <path d="M 25 45 L 25 75 Q 25 80 30 80 L 48 80 L 48 50 Q 48 45 43 45 Z" fill="#66bb6a" opacity="0.8"/>
  <path d="M 75 45 L 75 75 Q 75 80 70 80 L 52 80 L 52 50 Q 52 45 57 45 Z" fill="#66bb6a" opacity="0.8"/>

  <!-- Book spine -->
  <rect x="48" y="45" width="4" height="35" fill="#2e7d32"/>

  <!-- Page lines -->
  <line x1="30" y1="55" x2="44" y2="55" stroke="#2e7d32" stroke-width="1" opacity="0.4"/>
  <line x1="30" y1="62" x2="44" y2="62" stroke="#2e7d32" stroke-width="1" opacity="0.4"/>
  <line x1="30" y1="69" x2="44" y2="69" stroke="#2e7d32" stroke-width="1" opacity="0.4"/>
  <line x1="56" y1="55" x2="70" y2="55" stroke="#2e7d32" stroke-width="1" opacity="0.4"/>
  <line x1="56" y1="62" x2="70" y2="62" stroke="#2e7d32" stroke-width="1" opacity="0.4"/>
  <line x1="56" y1="69" x2="70" y2="69" stroke="#2e7d32" stroke-width="1" opacity="0.4"/>

  <!-- Graduation cap -->
  <path d="M 25 25 L 50 15 L 75 25 L 50 35 Z" fill="url(#eduGrad)"/>
  <rect x="48" y="35" width="4" height="15" fill="#2e7d32"/>
  <path d="M 72 27 L 72 37 Q 72 40 68 42 Q 50 50 32 42 Q 28 40 28 37 L 28 27" fill="#66bb6a" opacity="0.6"/>

  <!-- Tassel -->
  <circle cx="48" cy="51" r="2" fill="#2e7d32"/>
</svg>
