<svg width="100" height="100" viewBox="0 0 100 100" xmlns="http://www.w3.org/2000/svg">
  <!-- Impact ripple effect -->
  <defs>
    <linearGradient id="impactGrad" x1="0%" y1="0%" x2="100%" y2="100%">
      <stop offset="0%" style="stop-color:#2e7d32;stop-opacity:1" />
      <stop offset="100%" style="stop-color:#66bb6a;stop-opacity:1" />
    </linearGradient>
  </defs>

  <!-- Ripple circles -->
  <circle cx="50" cy="50" r="35" fill="none" stroke="#66bb6a" stroke-width="2.5" opacity="0.3"/>
  <circle cx="50" cy="50" r="25" fill="none" stroke="#66bb6a" stroke-width="2.5" opacity="0.5"/>
  <circle cx="50" cy="50" r="15" fill="none" stroke="#2e7d32" stroke-width="2.5" opacity="0.7"/>

  <!-- Center impact -->
  <circle cx="50" cy="50" r="8" fill="url(#impactGrad)"/>

  <!-- Impact stars/sparkles -->
  <path d="M 50 30 L 52 35 L 50 40 L 48 35 Z" fill="#66bb6a" opacity="0.7"/>
  <path d="M 70 50 L 65 52 L 60 50 L 65 48 Z" fill="#66bb6a" opacity="0.7"/>
  <path d="M 50 70 L 52 65 L 50 60 L 48 65 Z" fill="#66bb6a" opacity="0.7"/>
  <path d="M 30 50 L 35 52 L 40 50 L 35 48 Z" fill="#66bb6a" opacity="0.7"/>

  <!-- Diagonal sparkles -->
  <path d="M 35 35 L 36 38 L 35 41 L 34 38 Z" fill="#2e7d32" opacity="0.6"/>
  <path d="M 65 35 L 66 38 L 65 41 L 64 38 Z" fill="#2e7d32" opacity="0.6"/>
  <path d="M 35 65 L 36 62 L 35 59 L 34 62 Z" fill="#2e7d32" opacity="0.6"/>
  <path d="M 65 65 L 66 62 L 65 59 L 64 62 Z" fill="#2e7d32" opacity="0.6"/>
</svg>
