<svg width="100" height="100" viewBox="0 0 100 100" xmlns="http://www.w3.org/2000/svg">
  <!-- Innovation lightbulb -->
  <defs>
    <linearGradient id="innovGrad" x1="0%" y1="0%" x2="0%" y2="100%">
      <stop offset="0%" style="stop-color:#66bb6a;stop-opacity:1" />
      <stop offset="100%" style="stop-color:#2e7d32;stop-opacity:1" />
    </linearGradient>
  </defs>

  <!-- Lightbulb -->
  <circle cx="50" cy="35" r="18" fill="url(#innovGrad)" opacity="0.9"/>
  <path d="M 40 50 Q 40 58 42 62 L 58 62 Q 60 58 60 50" fill="#66bb6a"/>

  <!-- Bulb base -->
  <rect x="44" y="62" width="12" height="3" fill="#2e7d32"/>
  <rect x="45" y="65" width="10" height="3" fill="#2e7d32" opacity="0.8"/>
  <rect x="46" y="68" width="8" height="4" fill="#2e7d32" rx="1"/>

  <!-- Filament -->
  <path d="M 50 30 L 50 40" stroke="#ffffff" stroke-width="2" opacity="0.6"/>
  <path d="M 47 32 L 53 38" stroke="#ffffff" stroke-width="1.5" opacity="0.5"/>
  <path d="M 53 32 L 47 38" stroke="#ffffff" stroke-width="1.5" opacity="0.5"/>

  <!-- Light rays -->
  <line x1="50" y1="10" x2="50" y2="17" stroke="#66bb6a" stroke-width="2.5" stroke-linecap="round"/>
  <line x1="68" y1="20" x2="63" y2="25" stroke="#66bb6a" stroke-width="2.5" stroke-linecap="round"/>
  <line x1="32" y1="20" x2="37" y2="25" stroke="#66bb6a" stroke-width="2.5" stroke-linecap="round"/>
  <line x1="75" y1="35" x2="68" y2="35" stroke="#66bb6a" stroke-width="2.5" stroke-linecap="round"/>
  <line x1="25" y1="35" x2="32" y2="35" stroke="#66bb6a" stroke-width="2.5" stroke-linecap="round"/>
  <line x1="70" y1="50" x2="63" y2="47" stroke="#66bb6a" stroke-width="2" stroke-linecap="round"/>
  <line x1="30" y1="50" x2="37" y2="47" stroke="#66bb6a" stroke-width="2" stroke-linecap="round"/>
</svg>
